<svg xmlns="http://www.w3.org/2000/svg" xmlns:xlink="http://www.w3.org/1999/xlink" width="2000" zoomAndPan="magnify" viewBox="0 0 1500 1499.999933" height="2000" preserveAspectRatio="xMidYMid meet" version="1.0"><defs><clipPath id="f16b928219"><path d="M 105.46875 0 L 1394.53125 0 L 1394.53125 1500 L 105.46875 1500 Z M 105.46875 0 " clip-rule="nonzero"/></clipPath><clipPath id="cea6065ed9"><path d="M 750 0 L 1394.53125 375 L 1394.53125 1125 L 750 1500 L 105.46875 1125 L 105.46875 375 Z M 750 0 " clip-rule="nonzero"/></clipPath></defs><g clip-path="url(#f16b928219)"><g clip-path="url(#cea6065ed9)"><path stroke-linecap="butt" transform="matrix(0.75, 0, 0, 0.75, 105.468775, -0.00002)" fill="none" stroke-linejoin="miter" d="M 859.374985 0.0000266667 L 1718.750004 500.000038 L 1718.750004 1500.00006 L 859.374985 2000.000071 L -0.0000339542 1500.00006 L -0.0000339542 500.000038 Z M 859.374985 0.0000266667 " stroke="#000000" stroke-width="200" stroke-opacity="1" stroke-miterlimit="4"/></g></g><path stroke-linecap="butt" transform="matrix(0.648783, 0.376272, -0.376272, 0.648783, 164.262002, 366.943631)" fill="none" stroke-linejoin="miter" d="M 0.000976509 49.999494 L 931.822736 49.997352 " stroke="#000000" stroke-width="100" stroke-opacity="1" stroke-miterlimit="4"/><path stroke-linecap="butt" transform="matrix(0, 0.75, -0.75, 0, 787.498142, 750.001667)" fill="none" stroke-linejoin="miter" d="M -0.0022232 49.997526 L 936.784316 49.997526 " stroke="#000000" stroke-width="100" stroke-opacity="1" stroke-miterlimit="4"/><path stroke-linecap="butt" transform="matrix(-0.647543, 0.378402, -0.378402, -0.647543, 1368.919259, 431.758095)" fill="none" stroke-linejoin="miter" d="M 0.000308251 49.997288 L 926.578211 49.999584 " stroke="#000000" stroke-width="100" stroke-opacity="1" stroke-miterlimit="4"/><path stroke-linecap="butt" transform="matrix(-0.649519, 0.375, -0.375, -0.649519, 1070.877013, 238.010585)" fill="none" stroke-linejoin="miter" d="M -0.00183751 49.998139 L 956.221222 50.000579 " stroke="#000000" stroke-width="100" stroke-opacity="1" stroke-miterlimit="4"/></svg>